<?xml version="1.0" encoding="UTF-8"?>
<svg width="205px" height="204px" viewBox="0 0 205 204" version="1.1" xmlns="http://www.w3.org/2000/svg" xmlns:xlink="http://www.w3.org/1999/xlink">
    <!-- Generator: Sketch 58 (84663) - https://sketch.com -->
    <title>Group 6</title>
    <desc>Created with Sketch.</desc>
    <defs>
        <polygon id="path-1" points="0 0.161508808 204.189607 0.161508808 204.189607 204 0 204"></polygon>
    </defs>
    <g id="Second-Draft-(Desktop)" stroke="none" stroke-width="1" fill="none" fill-rule="evenodd">
        <g id="Work-05---Detail" transform="translate(-579.000000, -91.000000)">
            <g id="Group-6" transform="translate(579.000000, 91.000000)">
                <g id="Group-3" transform="translate(0.119063, 0.000000)">
                    <mask id="mask-2" fill="white">
                        <use xlink:href="#path-1"></use>
                    </mask>
                    <g id="Clip-2"></g>
                    <path d="M102.094803,12.3557277 C52.5346201,12.3557277 12.2164832,52.6072135 12.2164832,102.079724 C12.2164832,151.552234 52.5346201,191.80372 102.094803,191.80372 C151.654987,191.80372 191.973124,151.552234 191.973124,102.079724 C191.973124,52.6072135 151.654987,12.3557277 102.094803,12.3557277 M102.094803,204.000515 C45.8011661,204.000515 -0.00129042814,158.27928 -0.00129042814,102.079724 C-0.00129042814,45.8801681 45.8011661,0.161508808 102.094803,0.161508808 C158.388441,0.161508808 204.190897,45.8801681 204.190897,102.079724 C204.190897,158.27928 158.388441,204.000515 102.094803,204.000515" id="Fill-1" fill="#FFFFFF" mask="url(#mask-2)"></path>
                </g>
                <path d="M139.841906,135.873216 C131.916394,135.873216 125.471443,129.485476 125.471443,121.630317 C125.471443,113.780261 131.916394,107.387417 139.841906,107.387417 C152.850253,107.387417 163.435628,96.8985592 163.435628,84.0082376 C163.435628,71.112812 152.850253,60.626506 139.841906,60.626506 L139.841906,69.7627862 C147.764844,69.7627862 154.21237,76.1530783 154.21237,84.0082376 C154.21237,91.8608449 147.764844,98.248585 139.841906,98.248585 C132.068312,98.248585 125.159881,101.997522 120.862389,107.765118 C116.564897,101.997522 109.653891,98.248585 101.880296,98.248585 C93.9599334,98.248585 87.5098328,91.8608449 87.5098328,84.0082376 C87.5098328,76.1530783 93.9599334,69.7627862 101.880296,69.7627862 L101.880296,60.626506 C88.8719498,60.626506 78.28915,71.112812 78.28915,84.0082376 C78.28915,96.8985592 88.8719498,107.387417 101.880296,107.387417 C109.805809,107.387417 116.25076,113.780261 116.25076,121.630317 C116.25076,129.485476 109.805809,135.873216 101.880296,135.873216 C93.9599334,135.873216 87.5098328,129.485476 87.5098328,121.630317 L78.28915,121.630317 C78.28915,129.485476 71.8467741,135.873216 63.9238361,135.873216 C55.9983233,135.873216 49.5507976,129.485476 49.5507976,121.630317 L40.3326897,121.630317 C40.3326897,134.525742 50.9154895,145.012048 63.9238361,145.012048 C71.6948555,145.012048 78.6032867,141.260559 82.9007788,135.498067 C87.2034208,141.260559 94.1067021,145.012048 101.880296,145.012048 C109.653891,145.012048 116.564897,141.260559 120.862389,135.498067 C125.159881,141.260559 132.068312,145.012048 139.841906,145.012048 C152.850253,145.012048 163.435628,134.525742 163.435628,121.630317 L154.21237,121.630317 C154.21237,129.485476 147.764844,135.873216 139.841906,135.873216" id="Fill-4" fill="#FFFFFF"></path>
            </g>
        </g>
    </g>
</svg>